<?xml version="1.0" encoding="UTF-8"?>
<svg width="1920" height="1080" version="1.1" viewBox="0 0 508 285.75" xmlns="http://www.w3.org/2000/svg" xmlns:cc="http://creativecommons.org/ns#" xmlns:dc="http://purl.org/dc/elements/1.1/" xmlns:rdf="http://www.w3.org/1999/02/22-rdf-syntax-ns#">
 <metadata>
  <rdf:RDF>
   <cc:Work rdf:about="">
    <dc:format>image/svg+xml</dc:format>
    <dc:type rdf:resource="http://purl.org/dc/dcmitype/StillImage"/>
    <dc:title/>
   </cc:Work>
  </rdf:RDF>
 </metadata>
 <rect width="508" height="285.75" fill="#fff" stroke-width=".27548"/>
 <rect width="508" height="285.75" fill="#fff" opacity=".999"/>
 <g>
  <g transform="matrix(3.7051 -.98923 1.0188 3.8159 -19.223 253.79)">
   <g transform="matrix(1 0 0 .92818 .12285 .39413)">
    <circle cx="9.0707" cy="3.7266" r="1.7609" fill="#ffd369" opacity=".999" stroke-width=".26458"/>
    <ellipse cx="9.3266" cy="3.5935" rx="1.5459" ry="1.8121" fill="#ffe8af" opacity=".999" stroke-width=".25148"/>
   </g>
   <g transform="matrix(1 0 0 .68508 2.1704 1.2162)">
    <circle cx="9.0707" cy="3.7266" r="1.7609" fill="#ffd369" opacity=".999" stroke-width=".26458"/>
    <ellipse cx="9.3266" cy="3.5935" rx="1.5459" ry="1.8121" fill="#ffe8af" opacity=".999" stroke-width=".25148"/>
   </g>
   <g transform="matrix(1 0 0 .70718 .9214 -.50216)">
    <circle cx="9.0707" cy="3.7266" r="1.7609" fill="#ffd369" opacity=".999" stroke-width=".26458"/>
    <ellipse cx="9.3266" cy="3.5935" rx="1.5459" ry="1.8121" fill="#ffe8af" opacity=".999" stroke-width=".25148"/>
   </g>
  </g>
  <g transform="matrix(2.7609 2.6615 -2.7411 2.8435 19.316 181.59)">
   <g transform="matrix(1 0 0 .92818 .12285 .39413)">
    <circle cx="9.0707" cy="3.7266" r="1.7609" fill="#ffd369" opacity=".999" stroke-width=".26458"/>
    <ellipse cx="9.3266" cy="3.5935" rx="1.5459" ry="1.8121" fill="#ffe8af" opacity=".999" stroke-width=".25148"/>
   </g>
   <g transform="matrix(1 0 0 .68508 2.1704 1.2162)">
    <circle cx="9.0707" cy="3.7266" r="1.7609" fill="#ffd369" opacity=".999" stroke-width=".26458"/>
    <ellipse cx="9.3266" cy="3.5935" rx="1.5459" ry="1.8121" fill="#ffe8af" opacity=".999" stroke-width=".25148"/>
   </g>
   <g transform="matrix(1 0 0 .70718 .9214 -.50216)">
    <circle cx="9.0707" cy="3.7266" r="1.7609" fill="#ffd369" opacity=".999" stroke-width=".26458"/>
    <ellipse cx="9.3266" cy="3.5935" rx="1.5459" ry="1.8121" fill="#ffe8af" opacity=".999" stroke-width=".25148"/>
   </g>
  </g>
  <g transform="matrix(1.9501 2.4448 -1.9362 2.6119 -1.7931 151.17)">
   <g transform="matrix(1 0 0 .92818 .12285 .39413)">
    <circle cx="9.0707" cy="3.7266" r="1.7609" fill="#ffd369" opacity=".999" stroke-width=".26458"/>
    <ellipse cx="9.3266" cy="3.5935" rx="1.5459" ry="1.8121" fill="#ffe8af" opacity=".999" stroke-width=".25148"/>
   </g>
   <g transform="matrix(1 0 0 .68508 2.1704 1.2162)">
    <circle cx="9.0707" cy="3.7266" r="1.7609" fill="#ffd369" opacity=".999" stroke-width=".26458"/>
    <ellipse cx="9.3266" cy="3.5935" rx="1.5459" ry="1.8121" fill="#ffe8af" opacity=".999" stroke-width=".25148"/>
   </g>
   <g transform="matrix(1 0 0 .70718 .9214 -.50216)">
    <circle cx="9.0707" cy="3.7266" r="1.7609" fill="#ffd369" opacity=".999" stroke-width=".26458"/>
    <ellipse cx="9.3266" cy="3.5935" rx="1.5459" ry="1.8121" fill="#ffe8af" opacity=".999" stroke-width=".25148"/>
   </g>
  </g>
  <g transform="matrix(1.4369 -.38363 .3951 1.4798 -1.1577 225.8)">
   <g transform="matrix(1 0 0 .92818 .12285 .39413)">
    <circle cx="9.0707" cy="3.7266" r="1.7609" fill="#ffd369" opacity=".999" stroke-width=".26458"/>
    <ellipse cx="9.3266" cy="3.5935" rx="1.5459" ry="1.8121" fill="#ffe8af" opacity=".999" stroke-width=".25148"/>
   </g>
   <g transform="matrix(1 0 0 .68508 2.1704 1.2162)">
    <circle cx="9.0707" cy="3.7266" r="1.7609" fill="#ffd369" opacity=".999" stroke-width=".26458"/>
    <ellipse cx="9.3266" cy="3.5935" rx="1.5459" ry="1.8121" fill="#ffe8af" opacity=".999" stroke-width=".25148"/>
   </g>
   <g transform="matrix(1 0 0 .70718 .9214 -.50216)">
    <circle cx="9.0707" cy="3.7266" r="1.7609" fill="#ffd369" opacity=".999" stroke-width=".26458"/>
    <ellipse cx="9.3266" cy="3.5935" rx="1.5459" ry="1.8121" fill="#ffe8af" opacity=".999" stroke-width=".25148"/>
   </g>
  </g>
  <g transform="matrix(3.7051 -.98923 1.0188 3.8159 -6.9285 161.32)">
   <g transform="matrix(1 0 0 .92818 .12285 .39413)">
    <circle cx="9.0707" cy="3.7266" r="1.7609" fill="#ffd369" opacity=".999" stroke-width=".26458"/>
    <ellipse cx="9.3266" cy="3.5935" rx="1.5459" ry="1.8121" fill="#ffe8af" opacity=".999" stroke-width=".25148"/>
   </g>
   <g transform="matrix(1 0 0 .68508 2.1704 1.2162)">
    <circle cx="9.0707" cy="3.7266" r="1.7609" fill="#ffd369" opacity=".999" stroke-width=".26458"/>
    <ellipse cx="9.3266" cy="3.5935" rx="1.5459" ry="1.8121" fill="#ffe8af" opacity=".999" stroke-width=".25148"/>
   </g>
   <g transform="matrix(1 0 0 .70718 .9214 -.50216)">
    <circle cx="9.0707" cy="3.7266" r="1.7609" fill="#ffd369" opacity=".999" stroke-width=".26458"/>
    <ellipse cx="9.3266" cy="3.5935" rx="1.5459" ry="1.8121" fill="#ffe8af" opacity=".999" stroke-width=".25148"/>
   </g>
  </g>
  <g transform="matrix(2.7609 2.6615 -2.7411 2.8435 31.61 89.117)">
   <g transform="matrix(1 0 0 .92818 .12285 .39413)">
    <circle cx="9.0707" cy="3.7266" r="1.7609" fill="#ffd369" opacity=".999" stroke-width=".26458"/>
    <ellipse cx="9.3266" cy="3.5935" rx="1.5459" ry="1.8121" fill="#ffe8af" opacity=".999" stroke-width=".25148"/>
   </g>
   <g transform="matrix(1 0 0 .68508 2.1704 1.2162)">
    <circle cx="9.0707" cy="3.7266" r="1.7609" fill="#ffd369" opacity=".999" stroke-width=".26458"/>
    <ellipse cx="9.3266" cy="3.5935" rx="1.5459" ry="1.8121" fill="#ffe8af" opacity=".999" stroke-width=".25148"/>
   </g>
   <g transform="matrix(1 0 0 .70718 .9214 -.50216)">
    <circle cx="9.0707" cy="3.7266" r="1.7609" fill="#ffd369" opacity=".999" stroke-width=".26458"/>
    <ellipse cx="9.3266" cy="3.5935" rx="1.5459" ry="1.8121" fill="#ffe8af" opacity=".999" stroke-width=".25148"/>
   </g>
  </g>
  <g transform="matrix(1.9501 2.4448 -1.9362 2.6119 3.0178 69.917)">
   <g transform="matrix(1 0 0 .92818 .12285 .39413)">
    <circle cx="9.0707" cy="3.7266" r="1.7609" fill="#ffd369" opacity=".999" stroke-width=".26458"/>
    <ellipse cx="9.3266" cy="3.5935" rx="1.5459" ry="1.8121" fill="#ffe8af" opacity=".999" stroke-width=".25148"/>
   </g>
   <g transform="matrix(1 0 0 .68508 2.1704 1.2162)">
    <circle cx="9.0707" cy="3.7266" r="1.7609" fill="#ffd369" opacity=".999" stroke-width=".26458"/>
    <ellipse cx="9.3266" cy="3.5935" rx="1.5459" ry="1.8121" fill="#ffe8af" opacity=".999" stroke-width=".25148"/>
   </g>
   <g transform="matrix(1 0 0 .70718 .9214 -.50216)">
    <circle cx="9.0707" cy="3.7266" r="1.7609" fill="#ffd369" opacity=".999" stroke-width=".26458"/>
    <ellipse cx="9.3266" cy="3.5935" rx="1.5459" ry="1.8121" fill="#ffe8af" opacity=".999" stroke-width=".25148"/>
   </g>
  </g>
  <g transform="matrix(1.4369 -.38363 .3951 1.4798 3.1186 137.07)">
   <g transform="matrix(1 0 0 .92818 .12285 .39413)">
    <circle cx="9.0707" cy="3.7266" r="1.7609" fill="#ffd369" opacity=".999" stroke-width=".26458"/>
    <ellipse cx="9.3266" cy="3.5935" rx="1.5459" ry="1.8121" fill="#ffe8af" opacity=".999" stroke-width=".25148"/>
   </g>
   <g transform="matrix(1 0 0 .68508 2.1704 1.2162)">
    <circle cx="9.0707" cy="3.7266" r="1.7609" fill="#ffd369" opacity=".999" stroke-width=".26458"/>
    <ellipse cx="9.3266" cy="3.5935" rx="1.5459" ry="1.8121" fill="#ffe8af" opacity=".999" stroke-width=".25148"/>
   </g>
   <g transform="matrix(1 0 0 .70718 .9214 -.50216)">
    <circle cx="9.0707" cy="3.7266" r="1.7609" fill="#ffd369" opacity=".999" stroke-width=".26458"/>
    <ellipse cx="9.3266" cy="3.5935" rx="1.5459" ry="1.8121" fill="#ffe8af" opacity=".999" stroke-width=".25148"/>
   </g>
  </g>
  <g transform="matrix(-3.7051 -.98923 -1.0188 3.8159 84.675 87.018)">
   <g transform="matrix(1 0 0 .92818 .12285 .39413)">
    <circle cx="9.0707" cy="3.7266" r="1.7609" fill="#ffd369" opacity=".999" stroke-width=".26458"/>
    <ellipse cx="9.3266" cy="3.5935" rx="1.5459" ry="1.8121" fill="#ffe8af" opacity=".999" stroke-width=".25148"/>
   </g>
   <g transform="matrix(1 0 0 .68508 2.1704 1.2162)">
    <circle cx="9.0707" cy="3.7266" r="1.7609" fill="#ffd369" opacity=".999" stroke-width=".26458"/>
    <ellipse cx="9.3266" cy="3.5935" rx="1.5459" ry="1.8121" fill="#ffe8af" opacity=".999" stroke-width=".25148"/>
   </g>
   <g transform="matrix(1 0 0 .70718 .9214 -.50216)">
    <circle cx="9.0707" cy="3.7266" r="1.7609" fill="#ffd369" opacity=".999" stroke-width=".26458"/>
    <ellipse cx="9.3266" cy="3.5935" rx="1.5459" ry="1.8121" fill="#ffe8af" opacity=".999" stroke-width=".25148"/>
   </g>
  </g>
  <g transform="matrix(-2.7609 2.6615 2.7411 2.8435 46.136 14.816)">
   <g transform="matrix(1 0 0 .92818 .12285 .39413)">
    <circle cx="9.0707" cy="3.7266" r="1.7609" fill="#ffd369" opacity=".999" stroke-width=".26458"/>
    <ellipse cx="9.3266" cy="3.5935" rx="1.5459" ry="1.8121" fill="#ffe8af" opacity=".999" stroke-width=".25148"/>
   </g>
   <g transform="matrix(1 0 0 .68508 2.1704 1.2162)">
    <circle cx="9.0707" cy="3.7266" r="1.7609" fill="#ffd369" opacity=".999" stroke-width=".26458"/>
    <ellipse cx="9.3266" cy="3.5935" rx="1.5459" ry="1.8121" fill="#ffe8af" opacity=".999" stroke-width=".25148"/>
   </g>
   <g transform="matrix(1 0 0 .70718 .9214 -.50216)">
    <circle cx="9.0707" cy="3.7266" r="1.7609" fill="#ffd369" opacity=".999" stroke-width=".26458"/>
    <ellipse cx="9.3266" cy="3.5935" rx="1.5459" ry="1.8121" fill="#ffe8af" opacity=".999" stroke-width=".25148"/>
   </g>
  </g>
  <g transform="matrix(-1.9501 2.4448 1.9362 2.6119 59.227 -9.1949)">
   <g transform="matrix(1 0 0 .92818 .12285 .39413)">
    <circle cx="9.0707" cy="3.7266" r="1.7609" fill="#ffd369" opacity=".999" stroke-width=".26458"/>
    <ellipse cx="9.3266" cy="3.5935" rx="1.5459" ry="1.8121" fill="#ffe8af" opacity=".999" stroke-width=".25148"/>
   </g>
   <g transform="matrix(1 0 0 .68508 2.1704 1.2162)">
    <circle cx="9.0707" cy="3.7266" r="1.7609" fill="#ffd369" opacity=".999" stroke-width=".26458"/>
    <ellipse cx="9.3266" cy="3.5935" rx="1.5459" ry="1.8121" fill="#ffe8af" opacity=".999" stroke-width=".25148"/>
   </g>
   <g transform="matrix(1 0 0 .70718 .9214 -.50216)">
    <circle cx="9.0707" cy="3.7266" r="1.7609" fill="#ffd369" opacity=".999" stroke-width=".26458"/>
    <ellipse cx="9.3266" cy="3.5935" rx="1.5459" ry="1.8121" fill="#ffe8af" opacity=".999" stroke-width=".25148"/>
   </g>
  </g>
  <g transform="matrix(-1.4369 -.38363 -.3951 1.4798 27.588 23.747)">
   <g transform="matrix(1 0 0 .92818 .12285 .39413)">
    <circle cx="9.0707" cy="3.7266" r="1.7609" fill="#ffd369" opacity=".999" stroke-width=".26458"/>
    <ellipse cx="9.3266" cy="3.5935" rx="1.5459" ry="1.8121" fill="#ffe8af" opacity=".999" stroke-width=".25148"/>
   </g>
   <g transform="matrix(1 0 0 .68508 2.1704 1.2162)">
    <circle cx="9.0707" cy="3.7266" r="1.7609" fill="#ffd369" opacity=".999" stroke-width=".26458"/>
    <ellipse cx="9.3266" cy="3.5935" rx="1.5459" ry="1.8121" fill="#ffe8af" opacity=".999" stroke-width=".25148"/>
   </g>
   <g transform="matrix(1 0 0 .70718 .9214 -.50216)">
    <circle cx="9.0707" cy="3.7266" r="1.7609" fill="#ffd369" opacity=".999" stroke-width=".26458"/>
    <ellipse cx="9.3266" cy="3.5935" rx="1.5459" ry="1.8121" fill="#ffe8af" opacity=".999" stroke-width=".25148"/>
   </g>
  </g>
  <g transform="matrix(1.4369 -.38363 .3951 1.4798 35.191 265.36)">
   <g transform="matrix(1 0 0 .92818 .12285 .39413)">
    <circle cx="9.0707" cy="3.7266" r="1.7609" fill="#ffd369" opacity=".999" stroke-width=".26458"/>
    <ellipse cx="9.3266" cy="3.5935" rx="1.5459" ry="1.8121" fill="#ffe8af" opacity=".999" stroke-width=".25148"/>
   </g>
   <g transform="matrix(1 0 0 .68508 2.1704 1.2162)">
    <circle cx="9.0707" cy="3.7266" r="1.7609" fill="#ffd369" opacity=".999" stroke-width=".26458"/>
    <ellipse cx="9.3266" cy="3.5935" rx="1.5459" ry="1.8121" fill="#ffe8af" opacity=".999" stroke-width=".25148"/>
   </g>
   <g transform="matrix(1 0 0 .70718 .9214 -.50216)">
    <circle cx="9.0707" cy="3.7266" r="1.7609" fill="#ffd369" opacity=".999" stroke-width=".26458"/>
    <ellipse cx="9.3266" cy="3.5935" rx="1.5459" ry="1.8121" fill="#ffe8af" opacity=".999" stroke-width=".25148"/>
   </g>
  </g>
  <g transform="matrix(-3.7051 -.98923 -1.0188 3.8159 527.81 247.38)">
   <g transform="matrix(1 0 0 .92818 .12285 .39413)">
    <circle cx="9.0707" cy="3.7266" r="1.7609" fill="#ffd369" opacity=".999" stroke-width=".26458"/>
    <ellipse cx="9.3266" cy="3.5935" rx="1.5459" ry="1.8121" fill="#ffe8af" opacity=".999" stroke-width=".25148"/>
   </g>
   <g transform="matrix(1 0 0 .68508 2.1704 1.2162)">
    <circle cx="9.0707" cy="3.7266" r="1.7609" fill="#ffd369" opacity=".999" stroke-width=".26458"/>
    <ellipse cx="9.3266" cy="3.5935" rx="1.5459" ry="1.8121" fill="#ffe8af" opacity=".999" stroke-width=".25148"/>
   </g>
   <g transform="matrix(1 0 0 .70718 .9214 -.50216)">
    <circle cx="9.0707" cy="3.7266" r="1.7609" fill="#ffd369" opacity=".999" stroke-width=".26458"/>
    <ellipse cx="9.3266" cy="3.5935" rx="1.5459" ry="1.8121" fill="#ffe8af" opacity=".999" stroke-width=".25148"/>
   </g>
  </g>
  <g transform="matrix(-2.7609 2.6615 2.7411 2.8435 489.27 175.18)">
   <g transform="matrix(1 0 0 .92818 .12285 .39413)">
    <circle cx="9.0707" cy="3.7266" r="1.7609" fill="#ffd369" opacity=".999" stroke-width=".26458"/>
    <ellipse cx="9.3266" cy="3.5935" rx="1.5459" ry="1.8121" fill="#ffe8af" opacity=".999" stroke-width=".25148"/>
   </g>
   <g transform="matrix(1 0 0 .68508 2.1704 1.2162)">
    <circle cx="9.0707" cy="3.7266" r="1.7609" fill="#ffd369" opacity=".999" stroke-width=".26458"/>
    <ellipse cx="9.3266" cy="3.5935" rx="1.5459" ry="1.8121" fill="#ffe8af" opacity=".999" stroke-width=".25148"/>
   </g>
   <g transform="matrix(1 0 0 .70718 .9214 -.50216)">
    <circle cx="9.0707" cy="3.7266" r="1.7609" fill="#ffd369" opacity=".999" stroke-width=".26458"/>
    <ellipse cx="9.3266" cy="3.5935" rx="1.5459" ry="1.8121" fill="#ffe8af" opacity=".999" stroke-width=".25148"/>
   </g>
  </g>
  <g transform="matrix(-1.9501 2.4448 1.9362 2.6119 510.38 144.75)">
   <g transform="matrix(1 0 0 .92818 .12285 .39413)">
    <circle cx="9.0707" cy="3.7266" r="1.7609" fill="#ffd369" opacity=".999" stroke-width=".26458"/>
    <ellipse cx="9.3266" cy="3.5935" rx="1.5459" ry="1.8121" fill="#ffe8af" opacity=".999" stroke-width=".25148"/>
   </g>
   <g transform="matrix(1 0 0 .68508 2.1704 1.2162)">
    <circle cx="9.0707" cy="3.7266" r="1.7609" fill="#ffd369" opacity=".999" stroke-width=".26458"/>
    <ellipse cx="9.3266" cy="3.5935" rx="1.5459" ry="1.8121" fill="#ffe8af" opacity=".999" stroke-width=".25148"/>
   </g>
   <g transform="matrix(1 0 0 .70718 .9214 -.50216)">
    <circle cx="9.0707" cy="3.7266" r="1.7609" fill="#ffd369" opacity=".999" stroke-width=".26458"/>
    <ellipse cx="9.3266" cy="3.5935" rx="1.5459" ry="1.8121" fill="#ffe8af" opacity=".999" stroke-width=".25148"/>
   </g>
  </g>
  <g transform="matrix(-1.4369 -.38363 -.3951 1.4798 509.74 219.39)">
   <g transform="matrix(1 0 0 .92818 .12285 .39413)">
    <circle cx="9.0707" cy="3.7266" r="1.7609" fill="#ffd369" opacity=".999" stroke-width=".26458"/>
    <ellipse cx="9.3266" cy="3.5935" rx="1.5459" ry="1.8121" fill="#ffe8af" opacity=".999" stroke-width=".25148"/>
   </g>
   <g transform="matrix(1 0 0 .68508 2.1704 1.2162)">
    <circle cx="9.0707" cy="3.7266" r="1.7609" fill="#ffd369" opacity=".999" stroke-width=".26458"/>
    <ellipse cx="9.3266" cy="3.5935" rx="1.5459" ry="1.8121" fill="#ffe8af" opacity=".999" stroke-width=".25148"/>
   </g>
   <g transform="matrix(1 0 0 .70718 .9214 -.50216)">
    <circle cx="9.0707" cy="3.7266" r="1.7609" fill="#ffd369" opacity=".999" stroke-width=".26458"/>
    <ellipse cx="9.3266" cy="3.5935" rx="1.5459" ry="1.8121" fill="#ffe8af" opacity=".999" stroke-width=".25148"/>
   </g>
  </g>
  <g transform="matrix(-3.7051 -.98923 -1.0188 3.8159 515.51 154.9)">
   <g transform="matrix(1 0 0 .92818 .12285 .39413)">
    <circle cx="9.0707" cy="3.7266" r="1.7609" fill="#ffd369" opacity=".999" stroke-width=".26458"/>
    <ellipse cx="9.3266" cy="3.5935" rx="1.5459" ry="1.8121" fill="#ffe8af" opacity=".999" stroke-width=".25148"/>
   </g>
   <g transform="matrix(1 0 0 .68508 2.1704 1.2162)">
    <circle cx="9.0707" cy="3.7266" r="1.7609" fill="#ffd369" opacity=".999" stroke-width=".26458"/>
    <ellipse cx="9.3266" cy="3.5935" rx="1.5459" ry="1.8121" fill="#ffe8af" opacity=".999" stroke-width=".25148"/>
   </g>
   <g transform="matrix(1 0 0 .70718 .9214 -.50216)">
    <circle cx="9.0707" cy="3.7266" r="1.7609" fill="#ffd369" opacity=".999" stroke-width=".26458"/>
    <ellipse cx="9.3266" cy="3.5935" rx="1.5459" ry="1.8121" fill="#ffe8af" opacity=".999" stroke-width=".25148"/>
   </g>
  </g>
  <g transform="matrix(-2.7609 2.6615 2.7411 2.8435 476.97 82.703)">
   <g transform="matrix(1 0 0 .92818 .12285 .39413)">
    <circle cx="9.0707" cy="3.7266" r="1.7609" fill="#ffd369" opacity=".999" stroke-width=".26458"/>
    <ellipse cx="9.3266" cy="3.5935" rx="1.5459" ry="1.8121" fill="#ffe8af" opacity=".999" stroke-width=".25148"/>
   </g>
   <g transform="matrix(1 0 0 .68508 2.1704 1.2162)">
    <circle cx="9.0707" cy="3.7266" r="1.7609" fill="#ffd369" opacity=".999" stroke-width=".26458"/>
    <ellipse cx="9.3266" cy="3.5935" rx="1.5459" ry="1.8121" fill="#ffe8af" opacity=".999" stroke-width=".25148"/>
   </g>
   <g transform="matrix(1 0 0 .70718 .9214 -.50216)">
    <circle cx="9.0707" cy="3.7266" r="1.7609" fill="#ffd369" opacity=".999" stroke-width=".26458"/>
    <ellipse cx="9.3266" cy="3.5935" rx="1.5459" ry="1.8121" fill="#ffe8af" opacity=".999" stroke-width=".25148"/>
   </g>
  </g>
  <g transform="matrix(-1.9501 2.4448 1.9362 2.6119 505.57 63.502)">
   <g transform="matrix(1 0 0 .92818 .12285 .39413)">
    <circle cx="9.0707" cy="3.7266" r="1.7609" fill="#ffd369" opacity=".999" stroke-width=".26458"/>
    <ellipse cx="9.3266" cy="3.5935" rx="1.5459" ry="1.8121" fill="#ffe8af" opacity=".999" stroke-width=".25148"/>
   </g>
   <g transform="matrix(1 0 0 .68508 2.1704 1.2162)">
    <circle cx="9.0707" cy="3.7266" r="1.7609" fill="#ffd369" opacity=".999" stroke-width=".26458"/>
    <ellipse cx="9.3266" cy="3.5935" rx="1.5459" ry="1.8121" fill="#ffe8af" opacity=".999" stroke-width=".25148"/>
   </g>
   <g transform="matrix(1 0 0 .70718 .9214 -.50216)">
    <circle cx="9.0707" cy="3.7266" r="1.7609" fill="#ffd369" opacity=".999" stroke-width=".26458"/>
    <ellipse cx="9.3266" cy="3.5935" rx="1.5459" ry="1.8121" fill="#ffe8af" opacity=".999" stroke-width=".25148"/>
   </g>
  </g>
  <g transform="matrix(-1.4369 -.38363 -.3951 1.4798 505.47 130.66)">
   <g transform="matrix(1 0 0 .92818 .12285 .39413)">
    <circle cx="9.0707" cy="3.7266" r="1.7609" fill="#ffd369" opacity=".999" stroke-width=".26458"/>
    <ellipse cx="9.3266" cy="3.5935" rx="1.5459" ry="1.8121" fill="#ffe8af" opacity=".999" stroke-width=".25148"/>
   </g>
   <g transform="matrix(1 0 0 .68508 2.1704 1.2162)">
    <circle cx="9.0707" cy="3.7266" r="1.7609" fill="#ffd369" opacity=".999" stroke-width=".26458"/>
    <ellipse cx="9.3266" cy="3.5935" rx="1.5459" ry="1.8121" fill="#ffe8af" opacity=".999" stroke-width=".25148"/>
   </g>
   <g transform="matrix(1 0 0 .70718 .9214 -.50216)">
    <circle cx="9.0707" cy="3.7266" r="1.7609" fill="#ffd369" opacity=".999" stroke-width=".26458"/>
    <ellipse cx="9.3266" cy="3.5935" rx="1.5459" ry="1.8121" fill="#ffe8af" opacity=".999" stroke-width=".25148"/>
   </g>
  </g>
  <g transform="matrix(3.7051 -.98923 1.0188 3.8159 423.91 80.603)">
   <g transform="matrix(1 0 0 .92818 .12285 .39413)">
    <circle cx="9.0707" cy="3.7266" r="1.7609" fill="#ffd369" opacity=".999" stroke-width=".26458"/>
    <ellipse cx="9.3266" cy="3.5935" rx="1.5459" ry="1.8121" fill="#ffe8af" opacity=".999" stroke-width=".25148"/>
   </g>
   <g transform="matrix(1 0 0 .68508 2.1704 1.2162)">
    <circle cx="9.0707" cy="3.7266" r="1.7609" fill="#ffd369" opacity=".999" stroke-width=".26458"/>
    <ellipse cx="9.3266" cy="3.5935" rx="1.5459" ry="1.8121" fill="#ffe8af" opacity=".999" stroke-width=".25148"/>
   </g>
   <g transform="matrix(1 0 0 .70718 .9214 -.50216)">
    <circle cx="9.0707" cy="3.7266" r="1.7609" fill="#ffd369" opacity=".999" stroke-width=".26458"/>
    <ellipse cx="9.3266" cy="3.5935" rx="1.5459" ry="1.8121" fill="#ffe8af" opacity=".999" stroke-width=".25148"/>
   </g>
  </g>
  <g transform="matrix(2.7609 2.6615 -2.7411 2.8435 462.45 8.4019)">
   <g transform="matrix(1 0 0 .92818 .12285 .39413)">
    <circle cx="9.0707" cy="3.7266" r="1.7609" fill="#ffd369" opacity=".999" stroke-width=".26458"/>
    <ellipse cx="9.3266" cy="3.5935" rx="1.5459" ry="1.8121" fill="#ffe8af" opacity=".999" stroke-width=".25148"/>
   </g>
   <g transform="matrix(1 0 0 .68508 2.1704 1.2162)">
    <circle cx="9.0707" cy="3.7266" r="1.7609" fill="#ffd369" opacity=".999" stroke-width=".26458"/>
    <ellipse cx="9.3266" cy="3.5935" rx="1.5459" ry="1.8121" fill="#ffe8af" opacity=".999" stroke-width=".25148"/>
   </g>
   <g transform="matrix(1 0 0 .70718 .9214 -.50216)">
    <circle cx="9.0707" cy="3.7266" r="1.7609" fill="#ffd369" opacity=".999" stroke-width=".26458"/>
    <ellipse cx="9.3266" cy="3.5935" rx="1.5459" ry="1.8121" fill="#ffe8af" opacity=".999" stroke-width=".25148"/>
   </g>
  </g>
  <g transform="matrix(1.9501 2.4448 -1.9362 2.6119 449.36 -15.609)">
   <g transform="matrix(1 0 0 .92818 .12285 .39413)">
    <circle cx="9.0707" cy="3.7266" r="1.7609" fill="#ffd369" opacity=".999" stroke-width=".26458"/>
    <ellipse cx="9.3266" cy="3.5935" rx="1.5459" ry="1.8121" fill="#ffe8af" opacity=".999" stroke-width=".25148"/>
   </g>
   <g transform="matrix(1 0 0 .68508 2.1704 1.2162)">
    <circle cx="9.0707" cy="3.7266" r="1.7609" fill="#ffd369" opacity=".999" stroke-width=".26458"/>
    <ellipse cx="9.3266" cy="3.5935" rx="1.5459" ry="1.8121" fill="#ffe8af" opacity=".999" stroke-width=".25148"/>
   </g>
   <g transform="matrix(1 0 0 .70718 .9214 -.50216)">
    <circle cx="9.0707" cy="3.7266" r="1.7609" fill="#ffd369" opacity=".999" stroke-width=".26458"/>
    <ellipse cx="9.3266" cy="3.5935" rx="1.5459" ry="1.8121" fill="#ffe8af" opacity=".999" stroke-width=".25148"/>
   </g>
  </g>
  <g transform="matrix(1.4369 -.38363 .3951 1.4798 481 17.333)">
   <g transform="matrix(1 0 0 .92818 .12285 .39413)">
    <circle cx="9.0707" cy="3.7266" r="1.7609" fill="#ffd369" opacity=".999" stroke-width=".26458"/>
    <ellipse cx="9.3266" cy="3.5935" rx="1.5459" ry="1.8121" fill="#ffe8af" opacity=".999" stroke-width=".25148"/>
   </g>
   <g transform="matrix(1 0 0 .68508 2.1704 1.2162)">
    <circle cx="9.0707" cy="3.7266" r="1.7609" fill="#ffd369" opacity=".999" stroke-width=".26458"/>
    <ellipse cx="9.3266" cy="3.5935" rx="1.5459" ry="1.8121" fill="#ffe8af" opacity=".999" stroke-width=".25148"/>
   </g>
   <g transform="matrix(1 0 0 .70718 .9214 -.50216)">
    <circle cx="9.0707" cy="3.7266" r="1.7609" fill="#ffd369" opacity=".999" stroke-width=".26458"/>
    <ellipse cx="9.3266" cy="3.5935" rx="1.5459" ry="1.8121" fill="#ffe8af" opacity=".999" stroke-width=".25148"/>
   </g>
  </g>
  <g transform="matrix(-1.4369 -.38363 -.3951 1.4798 473.39 258.94)">
   <g transform="matrix(1 0 0 .92818 .12285 .39413)">
    <circle cx="9.0707" cy="3.7266" r="1.7609" fill="#ffd369" opacity=".999" stroke-width=".26458"/>
    <ellipse cx="9.3266" cy="3.5935" rx="1.5459" ry="1.8121" fill="#ffe8af" opacity=".999" stroke-width=".25148"/>
   </g>
   <g transform="matrix(1 0 0 .68508 2.1704 1.2162)">
    <circle cx="9.0707" cy="3.7266" r="1.7609" fill="#ffd369" opacity=".999" stroke-width=".26458"/>
    <ellipse cx="9.3266" cy="3.5935" rx="1.5459" ry="1.8121" fill="#ffe8af" opacity=".999" stroke-width=".25148"/>
   </g>
   <g transform="matrix(1 0 0 .70718 .9214 -.50216)">
    <circle cx="9.0707" cy="3.7266" r="1.7609" fill="#ffd369" opacity=".999" stroke-width=".26458"/>
    <ellipse cx="9.3266" cy="3.5935" rx="1.5459" ry="1.8121" fill="#ffe8af" opacity=".999" stroke-width=".25148"/>
   </g>
  </g>
 </g>
</svg>
