<?xml version="1.0" encoding="UTF-8"?>
<svg width="1024" height="768" version="1.1" viewBox="0 0 270.93 203.2" xmlns="http://www.w3.org/2000/svg" xmlns:cc="http://creativecommons.org/ns#" xmlns:dc="http://purl.org/dc/elements/1.1/" xmlns:rdf="http://www.w3.org/1999/02/22-rdf-syntax-ns#">
 <metadata>
  <rdf:RDF>
   <cc:Work rdf:about="">
    <dc:format>image/svg+xml</dc:format>
    <dc:type rdf:resource="http://purl.org/dc/dcmitype/StillImage"/>
    <dc:title/>
   </cc:Work>
  </rdf:RDF>
 </metadata>
 <rect width="508" height="285.75" fill="#fff" stroke-width=".27548"/>
 <g>
  <rect width="270.93" height="203.2" fill="#fff" opacity=".999" stroke-width=".26458"/>
  <g transform="matrix(2.7541 -.70311 .7573 2.7122 -13.622 178.03)">
   <g transform="matrix(1 0 0 .92818 .12285 .39413)">
    <circle cx="9.0707" cy="3.7266" r="1.7609" fill="#ffd369" opacity=".999" stroke-width=".26458"/>
    <ellipse cx="9.3266" cy="3.5935" rx="1.5459" ry="1.8121" fill="#ffe8af" opacity=".999" stroke-width=".25148"/>
   </g>
   <g transform="matrix(1 0 0 .68508 2.1704 1.2162)">
    <circle cx="9.0707" cy="3.7266" r="1.7609" fill="#ffd369" opacity=".999" stroke-width=".26458"/>
    <ellipse cx="9.3266" cy="3.5935" rx="1.5459" ry="1.8121" fill="#ffe8af" opacity=".999" stroke-width=".25148"/>
   </g>
   <g transform="matrix(1 0 0 .70718 .9214 -.50216)">
    <circle cx="9.0707" cy="3.7266" r="1.7609" fill="#ffd369" opacity=".999" stroke-width=".26458"/>
    <ellipse cx="9.3266" cy="3.5935" rx="1.5459" ry="1.8121" fill="#ffe8af" opacity=".999" stroke-width=".25148"/>
   </g>
  </g>
  <g transform="matrix(2.0522 1.8917 -2.0375 2.0211 15.025 126.71)">
   <g transform="matrix(1 0 0 .92818 .12285 .39413)">
    <circle cx="9.0707" cy="3.7266" r="1.7609" fill="#ffd369" opacity=".999" stroke-width=".26458"/>
    <ellipse cx="9.3266" cy="3.5935" rx="1.5459" ry="1.8121" fill="#ffe8af" opacity=".999" stroke-width=".25148"/>
   </g>
   <g transform="matrix(1 0 0 .68508 2.1704 1.2162)">
    <circle cx="9.0707" cy="3.7266" r="1.7609" fill="#ffd369" opacity=".999" stroke-width=".26458"/>
    <ellipse cx="9.3266" cy="3.5935" rx="1.5459" ry="1.8121" fill="#ffe8af" opacity=".999" stroke-width=".25148"/>
   </g>
   <g transform="matrix(1 0 0 .70718 .9214 -.50216)">
    <circle cx="9.0707" cy="3.7266" r="1.7609" fill="#ffd369" opacity=".999" stroke-width=".26458"/>
    <ellipse cx="9.3266" cy="3.5935" rx="1.5459" ry="1.8121" fill="#ffe8af" opacity=".999" stroke-width=".25148"/>
   </g>
  </g>
  <g transform="matrix(1.4496 1.7377 -1.4392 1.8565 -.6657 105.09)">
   <g transform="matrix(1 0 0 .92818 .12285 .39413)">
    <circle cx="9.0707" cy="3.7266" r="1.7609" fill="#ffd369" opacity=".999" stroke-width=".26458"/>
    <ellipse cx="9.3266" cy="3.5935" rx="1.5459" ry="1.8121" fill="#ffe8af" opacity=".999" stroke-width=".25148"/>
   </g>
   <g transform="matrix(1 0 0 .68508 2.1704 1.2162)">
    <circle cx="9.0707" cy="3.7266" r="1.7609" fill="#ffd369" opacity=".999" stroke-width=".26458"/>
    <ellipse cx="9.3266" cy="3.5935" rx="1.5459" ry="1.8121" fill="#ffe8af" opacity=".999" stroke-width=".25148"/>
   </g>
   <g transform="matrix(1 0 0 .70718 .9214 -.50216)">
    <circle cx="9.0707" cy="3.7266" r="1.7609" fill="#ffd369" opacity=".999" stroke-width=".26458"/>
    <ellipse cx="9.3266" cy="3.5935" rx="1.5459" ry="1.8121" fill="#ffe8af" opacity=".999" stroke-width=".25148"/>
   </g>
  </g>
  <g transform="matrix(1.068 -.27267 .29369 1.0518 -.19343 158.14)">
   <g transform="matrix(1 0 0 .92818 .12285 .39413)">
    <circle cx="9.0707" cy="3.7266" r="1.7609" fill="#ffd369" opacity=".999" stroke-width=".26458"/>
    <ellipse cx="9.3266" cy="3.5935" rx="1.5459" ry="1.8121" fill="#ffe8af" opacity=".999" stroke-width=".25148"/>
   </g>
   <g transform="matrix(1 0 0 .68508 2.1704 1.2162)">
    <circle cx="9.0707" cy="3.7266" r="1.7609" fill="#ffd369" opacity=".999" stroke-width=".26458"/>
    <ellipse cx="9.3266" cy="3.5935" rx="1.5459" ry="1.8121" fill="#ffe8af" opacity=".999" stroke-width=".25148"/>
   </g>
   <g transform="matrix(1 0 0 .70718 .9214 -.50216)">
    <circle cx="9.0707" cy="3.7266" r="1.7609" fill="#ffd369" opacity=".999" stroke-width=".26458"/>
    <ellipse cx="9.3266" cy="3.5935" rx="1.5459" ry="1.8121" fill="#ffe8af" opacity=".999" stroke-width=".25148"/>
   </g>
  </g>
  <g transform="matrix(2.7541 -.70311 .7573 2.7122 -4.4829 112.3)">
   <g transform="matrix(1 0 0 .92818 .12285 .39413)">
    <circle cx="9.0707" cy="3.7266" r="1.7609" fill="#ffd369" opacity=".999" stroke-width=".26458"/>
    <ellipse cx="9.3266" cy="3.5935" rx="1.5459" ry="1.8121" fill="#ffe8af" opacity=".999" stroke-width=".25148"/>
   </g>
   <g transform="matrix(1 0 0 .68508 2.1704 1.2162)">
    <circle cx="9.0707" cy="3.7266" r="1.7609" fill="#ffd369" opacity=".999" stroke-width=".26458"/>
    <ellipse cx="9.3266" cy="3.5935" rx="1.5459" ry="1.8121" fill="#ffe8af" opacity=".999" stroke-width=".25148"/>
   </g>
   <g transform="matrix(1 0 0 .70718 .9214 -.50216)">
    <circle cx="9.0707" cy="3.7266" r="1.7609" fill="#ffd369" opacity=".999" stroke-width=".26458"/>
    <ellipse cx="9.3266" cy="3.5935" rx="1.5459" ry="1.8121" fill="#ffe8af" opacity=".999" stroke-width=".25148"/>
   </g>
  </g>
  <g transform="matrix(2.0522 1.8917 -2.0375 2.0211 24.163 60.984)">
   <g transform="matrix(1 0 0 .92818 .12285 .39413)">
    <circle cx="9.0707" cy="3.7266" r="1.7609" fill="#ffd369" opacity=".999" stroke-width=".26458"/>
    <ellipse cx="9.3266" cy="3.5935" rx="1.5459" ry="1.8121" fill="#ffe8af" opacity=".999" stroke-width=".25148"/>
   </g>
   <g transform="matrix(1 0 0 .68508 2.1704 1.2162)">
    <circle cx="9.0707" cy="3.7266" r="1.7609" fill="#ffd369" opacity=".999" stroke-width=".26458"/>
    <ellipse cx="9.3266" cy="3.5935" rx="1.5459" ry="1.8121" fill="#ffe8af" opacity=".999" stroke-width=".25148"/>
   </g>
   <g transform="matrix(1 0 0 .70718 .9214 -.50216)">
    <circle cx="9.0707" cy="3.7266" r="1.7609" fill="#ffd369" opacity=".999" stroke-width=".26458"/>
    <ellipse cx="9.3266" cy="3.5935" rx="1.5459" ry="1.8121" fill="#ffe8af" opacity=".999" stroke-width=".25148"/>
   </g>
  </g>
  <g transform="matrix(1.4496 1.7377 -1.4392 1.8565 2.9103 47.337)">
   <g transform="matrix(1 0 0 .92818 .12285 .39413)">
    <circle cx="9.0707" cy="3.7266" r="1.7609" fill="#ffd369" opacity=".999" stroke-width=".26458"/>
    <ellipse cx="9.3266" cy="3.5935" rx="1.5459" ry="1.8121" fill="#ffe8af" opacity=".999" stroke-width=".25148"/>
   </g>
   <g transform="matrix(1 0 0 .68508 2.1704 1.2162)">
    <circle cx="9.0707" cy="3.7266" r="1.7609" fill="#ffd369" opacity=".999" stroke-width=".26458"/>
    <ellipse cx="9.3266" cy="3.5935" rx="1.5459" ry="1.8121" fill="#ffe8af" opacity=".999" stroke-width=".25148"/>
   </g>
   <g transform="matrix(1 0 0 .70718 .9214 -.50216)">
    <circle cx="9.0707" cy="3.7266" r="1.7609" fill="#ffd369" opacity=".999" stroke-width=".26458"/>
    <ellipse cx="9.3266" cy="3.5935" rx="1.5459" ry="1.8121" fill="#ffe8af" opacity=".999" stroke-width=".25148"/>
   </g>
  </g>
  <g transform="matrix(1.068 -.27267 .29369 1.0518 2.9852 95.067)">
   <g transform="matrix(1 0 0 .92818 .12285 .39413)">
    <circle cx="9.0707" cy="3.7266" r="1.7609" fill="#ffd369" opacity=".999" stroke-width=".26458"/>
    <ellipse cx="9.3266" cy="3.5935" rx="1.5459" ry="1.8121" fill="#ffe8af" opacity=".999" stroke-width=".25148"/>
   </g>
   <g transform="matrix(1 0 0 .68508 2.1704 1.2162)">
    <circle cx="9.0707" cy="3.7266" r="1.7609" fill="#ffd369" opacity=".999" stroke-width=".26458"/>
    <ellipse cx="9.3266" cy="3.5935" rx="1.5459" ry="1.8121" fill="#ffe8af" opacity=".999" stroke-width=".25148"/>
   </g>
   <g transform="matrix(1 0 0 .70718 .9214 -.50216)">
    <circle cx="9.0707" cy="3.7266" r="1.7609" fill="#ffd369" opacity=".999" stroke-width=".26458"/>
    <ellipse cx="9.3266" cy="3.5935" rx="1.5459" ry="1.8121" fill="#ffe8af" opacity=".999" stroke-width=".25148"/>
   </g>
  </g>
  <g transform="matrix(-2.7541 -.70311 -.7573 2.7122 63.607 59.491)">
   <g transform="matrix(1 0 0 .92818 .12285 .39413)">
    <circle cx="9.0707" cy="3.7266" r="1.7609" fill="#ffd369" opacity=".999" stroke-width=".26458"/>
    <ellipse cx="9.3266" cy="3.5935" rx="1.5459" ry="1.8121" fill="#ffe8af" opacity=".999" stroke-width=".25148"/>
   </g>
   <g transform="matrix(1 0 0 .68508 2.1704 1.2162)">
    <circle cx="9.0707" cy="3.7266" r="1.7609" fill="#ffd369" opacity=".999" stroke-width=".26458"/>
    <ellipse cx="9.3266" cy="3.5935" rx="1.5459" ry="1.8121" fill="#ffe8af" opacity=".999" stroke-width=".25148"/>
   </g>
   <g transform="matrix(1 0 0 .70718 .9214 -.50216)">
    <circle cx="9.0707" cy="3.7266" r="1.7609" fill="#ffd369" opacity=".999" stroke-width=".26458"/>
    <ellipse cx="9.3266" cy="3.5935" rx="1.5459" ry="1.8121" fill="#ffe8af" opacity=".999" stroke-width=".25148"/>
   </g>
  </g>
  <g transform="matrix(-2.0522 1.8917 2.0375 2.0211 34.961 8.1732)">
   <g transform="matrix(1 0 0 .92818 .12285 .39413)">
    <circle cx="9.0707" cy="3.7266" r="1.7609" fill="#ffd369" opacity=".999" stroke-width=".26458"/>
    <ellipse cx="9.3266" cy="3.5935" rx="1.5459" ry="1.8121" fill="#ffe8af" opacity=".999" stroke-width=".25148"/>
   </g>
   <g transform="matrix(1 0 0 .68508 2.1704 1.2162)">
    <circle cx="9.0707" cy="3.7266" r="1.7609" fill="#ffd369" opacity=".999" stroke-width=".26458"/>
    <ellipse cx="9.3266" cy="3.5935" rx="1.5459" ry="1.8121" fill="#ffe8af" opacity=".999" stroke-width=".25148"/>
   </g>
   <g transform="matrix(1 0 0 .70718 .9214 -.50216)">
    <circle cx="9.0707" cy="3.7266" r="1.7609" fill="#ffd369" opacity=".999" stroke-width=".26458"/>
    <ellipse cx="9.3266" cy="3.5935" rx="1.5459" ry="1.8121" fill="#ffe8af" opacity=".999" stroke-width=".25148"/>
   </g>
  </g>
  <g transform="matrix(-1.4496 1.7377 1.4392 1.8565 44.691 -8.8932)">
   <g transform="matrix(1 0 0 .92818 .12285 .39413)">
    <circle cx="9.0707" cy="3.7266" r="1.7609" fill="#ffd369" opacity=".999" stroke-width=".26458"/>
    <ellipse cx="9.3266" cy="3.5935" rx="1.5459" ry="1.8121" fill="#ffe8af" opacity=".999" stroke-width=".25148"/>
   </g>
   <g transform="matrix(1 0 0 .68508 2.1704 1.2162)">
    <circle cx="9.0707" cy="3.7266" r="1.7609" fill="#ffd369" opacity=".999" stroke-width=".26458"/>
    <ellipse cx="9.3266" cy="3.5935" rx="1.5459" ry="1.8121" fill="#ffe8af" opacity=".999" stroke-width=".25148"/>
   </g>
   <g transform="matrix(1 0 0 .70718 .9214 -.50216)">
    <circle cx="9.0707" cy="3.7266" r="1.7609" fill="#ffd369" opacity=".999" stroke-width=".26458"/>
    <ellipse cx="9.3266" cy="3.5935" rx="1.5459" ry="1.8121" fill="#ffe8af" opacity=".999" stroke-width=".25148"/>
   </g>
  </g>
  <g transform="matrix(-1.068 -.27267 -.29369 1.0518 21.174 14.521)">
   <g transform="matrix(1 0 0 .92818 .12285 .39413)">
    <circle cx="9.0707" cy="3.7266" r="1.7609" fill="#ffd369" opacity=".999" stroke-width=".26458"/>
    <ellipse cx="9.3266" cy="3.5935" rx="1.5459" ry="1.8121" fill="#ffe8af" opacity=".999" stroke-width=".25148"/>
   </g>
   <g transform="matrix(1 0 0 .68508 2.1704 1.2162)">
    <circle cx="9.0707" cy="3.7266" r="1.7609" fill="#ffd369" opacity=".999" stroke-width=".26458"/>
    <ellipse cx="9.3266" cy="3.5935" rx="1.5459" ry="1.8121" fill="#ffe8af" opacity=".999" stroke-width=".25148"/>
   </g>
   <g transform="matrix(1 0 0 .70718 .9214 -.50216)">
    <circle cx="9.0707" cy="3.7266" r="1.7609" fill="#ffd369" opacity=".999" stroke-width=".26458"/>
    <ellipse cx="9.3266" cy="3.5935" rx="1.5459" ry="1.8121" fill="#ffe8af" opacity=".999" stroke-width=".25148"/>
   </g>
  </g>
  <g transform="matrix(1.068 -.27267 .29369 1.0518 26.825 186.25)">
   <g transform="matrix(1 0 0 .92818 .12285 .39413)">
    <circle cx="9.0707" cy="3.7266" r="1.7609" fill="#ffd369" opacity=".999" stroke-width=".26458"/>
    <ellipse cx="9.3266" cy="3.5935" rx="1.5459" ry="1.8121" fill="#ffe8af" opacity=".999" stroke-width=".25148"/>
   </g>
   <g transform="matrix(1 0 0 .68508 2.1704 1.2162)">
    <circle cx="9.0707" cy="3.7266" r="1.7609" fill="#ffd369" opacity=".999" stroke-width=".26458"/>
    <ellipse cx="9.3266" cy="3.5935" rx="1.5459" ry="1.8121" fill="#ffe8af" opacity=".999" stroke-width=".25148"/>
   </g>
   <g transform="matrix(1 0 0 .70718 .9214 -.50216)">
    <circle cx="9.0707" cy="3.7266" r="1.7609" fill="#ffd369" opacity=".999" stroke-width=".26458"/>
    <ellipse cx="9.3266" cy="3.5935" rx="1.5459" ry="1.8121" fill="#ffe8af" opacity=".999" stroke-width=".25148"/>
   </g>
  </g>
  <g transform="matrix(-2.7541 -.70311 -.7573 2.7122 284.39 177.4)">
   <g transform="matrix(1 0 0 .92818 .12285 .39413)">
    <circle cx="9.0707" cy="3.7266" r="1.7609" fill="#ffd369" opacity=".999" stroke-width=".26458"/>
    <ellipse cx="9.3266" cy="3.5935" rx="1.5459" ry="1.8121" fill="#ffe8af" opacity=".999" stroke-width=".25148"/>
   </g>
   <g transform="matrix(1 0 0 .68508 2.1704 1.2162)">
    <circle cx="9.0707" cy="3.7266" r="1.7609" fill="#ffd369" opacity=".999" stroke-width=".26458"/>
    <ellipse cx="9.3266" cy="3.5935" rx="1.5459" ry="1.8121" fill="#ffe8af" opacity=".999" stroke-width=".25148"/>
   </g>
   <g transform="matrix(1 0 0 .70718 .9214 -.50216)">
    <circle cx="9.0707" cy="3.7266" r="1.7609" fill="#ffd369" opacity=".999" stroke-width=".26458"/>
    <ellipse cx="9.3266" cy="3.5935" rx="1.5459" ry="1.8121" fill="#ffe8af" opacity=".999" stroke-width=".25148"/>
   </g>
  </g>
  <g transform="matrix(-2.0522 1.8917 2.0375 2.0211 255.74 126.08)">
   <g transform="matrix(1 0 0 .92818 .12285 .39413)">
    <circle cx="9.0707" cy="3.7266" r="1.7609" fill="#ffd369" opacity=".999" stroke-width=".26458"/>
    <ellipse cx="9.3266" cy="3.5935" rx="1.5459" ry="1.8121" fill="#ffe8af" opacity=".999" stroke-width=".25148"/>
   </g>
   <g transform="matrix(1 0 0 .68508 2.1704 1.2162)">
    <circle cx="9.0707" cy="3.7266" r="1.7609" fill="#ffd369" opacity=".999" stroke-width=".26458"/>
    <ellipse cx="9.3266" cy="3.5935" rx="1.5459" ry="1.8121" fill="#ffe8af" opacity=".999" stroke-width=".25148"/>
   </g>
   <g transform="matrix(1 0 0 .70718 .9214 -.50216)">
    <circle cx="9.0707" cy="3.7266" r="1.7609" fill="#ffd369" opacity=".999" stroke-width=".26458"/>
    <ellipse cx="9.3266" cy="3.5935" rx="1.5459" ry="1.8121" fill="#ffe8af" opacity=".999" stroke-width=".25148"/>
   </g>
  </g>
  <g transform="matrix(-1.4496 1.7377 1.4392 1.8565 271.44 104.46)">
   <g transform="matrix(1 0 0 .92818 .12285 .39413)">
    <circle cx="9.0707" cy="3.7266" r="1.7609" fill="#ffd369" opacity=".999" stroke-width=".26458"/>
    <ellipse cx="9.3266" cy="3.5935" rx="1.5459" ry="1.8121" fill="#ffe8af" opacity=".999" stroke-width=".25148"/>
   </g>
   <g transform="matrix(1 0 0 .68508 2.1704 1.2162)">
    <circle cx="9.0707" cy="3.7266" r="1.7609" fill="#ffd369" opacity=".999" stroke-width=".26458"/>
    <ellipse cx="9.3266" cy="3.5935" rx="1.5459" ry="1.8121" fill="#ffe8af" opacity=".999" stroke-width=".25148"/>
   </g>
   <g transform="matrix(1 0 0 .70718 .9214 -.50216)">
    <circle cx="9.0707" cy="3.7266" r="1.7609" fill="#ffd369" opacity=".999" stroke-width=".26458"/>
    <ellipse cx="9.3266" cy="3.5935" rx="1.5459" ry="1.8121" fill="#ffe8af" opacity=".999" stroke-width=".25148"/>
   </g>
  </g>
  <g transform="matrix(-1.068 -.27267 -.29369 1.0518 270.96 157.51)">
   <g transform="matrix(1 0 0 .92818 .12285 .39413)">
    <circle cx="9.0707" cy="3.7266" r="1.7609" fill="#ffd369" opacity=".999" stroke-width=".26458"/>
    <ellipse cx="9.3266" cy="3.5935" rx="1.5459" ry="1.8121" fill="#ffe8af" opacity=".999" stroke-width=".25148"/>
   </g>
   <g transform="matrix(1 0 0 .68508 2.1704 1.2162)">
    <circle cx="9.0707" cy="3.7266" r="1.7609" fill="#ffd369" opacity=".999" stroke-width=".26458"/>
    <ellipse cx="9.3266" cy="3.5935" rx="1.5459" ry="1.8121" fill="#ffe8af" opacity=".999" stroke-width=".25148"/>
   </g>
   <g transform="matrix(1 0 0 .70718 .9214 -.50216)">
    <circle cx="9.0707" cy="3.7266" r="1.7609" fill="#ffd369" opacity=".999" stroke-width=".26458"/>
    <ellipse cx="9.3266" cy="3.5935" rx="1.5459" ry="1.8121" fill="#ffe8af" opacity=".999" stroke-width=".25148"/>
   </g>
  </g>
  <g transform="matrix(-2.7541 -.70311 -.7573 2.7122 275.25 111.67)">
   <g transform="matrix(1 0 0 .92818 .12285 .39413)">
    <circle cx="9.0707" cy="3.7266" r="1.7609" fill="#ffd369" opacity=".999" stroke-width=".26458"/>
    <ellipse cx="9.3266" cy="3.5935" rx="1.5459" ry="1.8121" fill="#ffe8af" opacity=".999" stroke-width=".25148"/>
   </g>
   <g transform="matrix(1 0 0 .68508 2.1704 1.2162)">
    <circle cx="9.0707" cy="3.7266" r="1.7609" fill="#ffd369" opacity=".999" stroke-width=".26458"/>
    <ellipse cx="9.3266" cy="3.5935" rx="1.5459" ry="1.8121" fill="#ffe8af" opacity=".999" stroke-width=".25148"/>
   </g>
   <g transform="matrix(1 0 0 .70718 .9214 -.50216)">
    <circle cx="9.0707" cy="3.7266" r="1.7609" fill="#ffd369" opacity=".999" stroke-width=".26458"/>
    <ellipse cx="9.3266" cy="3.5935" rx="1.5459" ry="1.8121" fill="#ffe8af" opacity=".999" stroke-width=".25148"/>
   </g>
  </g>
  <g transform="matrix(-2.0522 1.8917 2.0375 2.0211 246.61 60.356)">
   <g transform="matrix(1 0 0 .92818 .12285 .39413)">
    <circle cx="9.0707" cy="3.7266" r="1.7609" fill="#ffd369" opacity=".999" stroke-width=".26458"/>
    <ellipse cx="9.3266" cy="3.5935" rx="1.5459" ry="1.8121" fill="#ffe8af" opacity=".999" stroke-width=".25148"/>
   </g>
   <g transform="matrix(1 0 0 .68508 2.1704 1.2162)">
    <circle cx="9.0707" cy="3.7266" r="1.7609" fill="#ffd369" opacity=".999" stroke-width=".26458"/>
    <ellipse cx="9.3266" cy="3.5935" rx="1.5459" ry="1.8121" fill="#ffe8af" opacity=".999" stroke-width=".25148"/>
   </g>
   <g transform="matrix(1 0 0 .70718 .9214 -.50216)">
    <circle cx="9.0707" cy="3.7266" r="1.7609" fill="#ffd369" opacity=".999" stroke-width=".26458"/>
    <ellipse cx="9.3266" cy="3.5935" rx="1.5459" ry="1.8121" fill="#ffe8af" opacity=".999" stroke-width=".25148"/>
   </g>
  </g>
  <g transform="matrix(-1.4496 1.7377 1.4392 1.8565 267.86 46.709)">
   <g transform="matrix(1 0 0 .92818 .12285 .39413)">
    <circle cx="9.0707" cy="3.7266" r="1.7609" fill="#ffd369" opacity=".999" stroke-width=".26458"/>
    <ellipse cx="9.3266" cy="3.5935" rx="1.5459" ry="1.8121" fill="#ffe8af" opacity=".999" stroke-width=".25148"/>
   </g>
   <g transform="matrix(1 0 0 .68508 2.1704 1.2162)">
    <circle cx="9.0707" cy="3.7266" r="1.7609" fill="#ffd369" opacity=".999" stroke-width=".26458"/>
    <ellipse cx="9.3266" cy="3.5935" rx="1.5459" ry="1.8121" fill="#ffe8af" opacity=".999" stroke-width=".25148"/>
   </g>
   <g transform="matrix(1 0 0 .70718 .9214 -.50216)">
    <circle cx="9.0707" cy="3.7266" r="1.7609" fill="#ffd369" opacity=".999" stroke-width=".26458"/>
    <ellipse cx="9.3266" cy="3.5935" rx="1.5459" ry="1.8121" fill="#ffe8af" opacity=".999" stroke-width=".25148"/>
   </g>
  </g>
  <g transform="matrix(-1.068 -.27267 -.29369 1.0518 267.78 94.439)">
   <g transform="matrix(1 0 0 .92818 .12285 .39413)">
    <circle cx="9.0707" cy="3.7266" r="1.7609" fill="#ffd369" opacity=".999" stroke-width=".26458"/>
    <ellipse cx="9.3266" cy="3.5935" rx="1.5459" ry="1.8121" fill="#ffe8af" opacity=".999" stroke-width=".25148"/>
   </g>
   <g transform="matrix(1 0 0 .68508 2.1704 1.2162)">
    <circle cx="9.0707" cy="3.7266" r="1.7609" fill="#ffd369" opacity=".999" stroke-width=".26458"/>
    <ellipse cx="9.3266" cy="3.5935" rx="1.5459" ry="1.8121" fill="#ffe8af" opacity=".999" stroke-width=".25148"/>
   </g>
   <g transform="matrix(1 0 0 .70718 .9214 -.50216)">
    <circle cx="9.0707" cy="3.7266" r="1.7609" fill="#ffd369" opacity=".999" stroke-width=".26458"/>
    <ellipse cx="9.3266" cy="3.5935" rx="1.5459" ry="1.8121" fill="#ffe8af" opacity=".999" stroke-width=".25148"/>
   </g>
  </g>
  <g transform="matrix(2.7541 -.70311 .7573 2.7122 207.16 58.864)">
   <g transform="matrix(1 0 0 .92818 .12285 .39413)">
    <circle cx="9.0707" cy="3.7266" r="1.7609" fill="#ffd369" opacity=".999" stroke-width=".26458"/>
    <ellipse cx="9.3266" cy="3.5935" rx="1.5459" ry="1.8121" fill="#ffe8af" opacity=".999" stroke-width=".25148"/>
   </g>
   <g transform="matrix(1 0 0 .68508 2.1704 1.2162)">
    <circle cx="9.0707" cy="3.7266" r="1.7609" fill="#ffd369" opacity=".999" stroke-width=".26458"/>
    <ellipse cx="9.3266" cy="3.5935" rx="1.5459" ry="1.8121" fill="#ffe8af" opacity=".999" stroke-width=".25148"/>
   </g>
   <g transform="matrix(1 0 0 .70718 .9214 -.50216)">
    <circle cx="9.0707" cy="3.7266" r="1.7609" fill="#ffd369" opacity=".999" stroke-width=".26458"/>
    <ellipse cx="9.3266" cy="3.5935" rx="1.5459" ry="1.8121" fill="#ffe8af" opacity=".999" stroke-width=".25148"/>
   </g>
  </g>
  <g transform="matrix(2.0522 1.8917 -2.0375 2.0211 235.81 7.5454)">
   <g transform="matrix(1 0 0 .92818 .12285 .39413)">
    <circle cx="9.0707" cy="3.7266" r="1.7609" fill="#ffd369" opacity=".999" stroke-width=".26458"/>
    <ellipse cx="9.3266" cy="3.5935" rx="1.5459" ry="1.8121" fill="#ffe8af" opacity=".999" stroke-width=".25148"/>
   </g>
   <g transform="matrix(1 0 0 .68508 2.1704 1.2162)">
    <circle cx="9.0707" cy="3.7266" r="1.7609" fill="#ffd369" opacity=".999" stroke-width=".26458"/>
    <ellipse cx="9.3266" cy="3.5935" rx="1.5459" ry="1.8121" fill="#ffe8af" opacity=".999" stroke-width=".25148"/>
   </g>
   <g transform="matrix(1 0 0 .70718 .9214 -.50216)">
    <circle cx="9.0707" cy="3.7266" r="1.7609" fill="#ffd369" opacity=".999" stroke-width=".26458"/>
    <ellipse cx="9.3266" cy="3.5935" rx="1.5459" ry="1.8121" fill="#ffe8af" opacity=".999" stroke-width=".25148"/>
   </g>
  </g>
  <g transform="matrix(1.4496 1.7377 -1.4392 1.8565 226.08 -9.521)">
   <g transform="matrix(1 0 0 .92818 .12285 .39413)">
    <circle cx="9.0707" cy="3.7266" r="1.7609" fill="#ffd369" opacity=".999" stroke-width=".26458"/>
    <ellipse cx="9.3266" cy="3.5935" rx="1.5459" ry="1.8121" fill="#ffe8af" opacity=".999" stroke-width=".25148"/>
   </g>
   <g transform="matrix(1 0 0 .68508 2.1704 1.2162)">
    <circle cx="9.0707" cy="3.7266" r="1.7609" fill="#ffd369" opacity=".999" stroke-width=".26458"/>
    <ellipse cx="9.3266" cy="3.5935" rx="1.5459" ry="1.8121" fill="#ffe8af" opacity=".999" stroke-width=".25148"/>
   </g>
   <g transform="matrix(1 0 0 .70718 .9214 -.50216)">
    <circle cx="9.0707" cy="3.7266" r="1.7609" fill="#ffd369" opacity=".999" stroke-width=".26458"/>
    <ellipse cx="9.3266" cy="3.5935" rx="1.5459" ry="1.8121" fill="#ffe8af" opacity=".999" stroke-width=".25148"/>
   </g>
  </g>
  <g transform="matrix(1.068 -.27267 .29369 1.0518 249.6 13.893)">
   <g transform="matrix(1 0 0 .92818 .12285 .39413)">
    <circle cx="9.0707" cy="3.7266" r="1.7609" fill="#ffd369" opacity=".999" stroke-width=".26458"/>
    <ellipse cx="9.3266" cy="3.5935" rx="1.5459" ry="1.8121" fill="#ffe8af" opacity=".999" stroke-width=".25148"/>
   </g>
   <g transform="matrix(1 0 0 .68508 2.1704 1.2162)">
    <circle cx="9.0707" cy="3.7266" r="1.7609" fill="#ffd369" opacity=".999" stroke-width=".26458"/>
    <ellipse cx="9.3266" cy="3.5935" rx="1.5459" ry="1.8121" fill="#ffe8af" opacity=".999" stroke-width=".25148"/>
   </g>
   <g transform="matrix(1 0 0 .70718 .9214 -.50216)">
    <circle cx="9.0707" cy="3.7266" r="1.7609" fill="#ffd369" opacity=".999" stroke-width=".26458"/>
    <ellipse cx="9.3266" cy="3.5935" rx="1.5459" ry="1.8121" fill="#ffe8af" opacity=".999" stroke-width=".25148"/>
   </g>
  </g>
  <g transform="matrix(-1.068 -.27267 -.29369 1.0518 243.94 185.62)">
   <g transform="matrix(1 0 0 .92818 .12285 .39413)">
    <circle cx="9.0707" cy="3.7266" r="1.7609" fill="#ffd369" opacity=".999" stroke-width=".26458"/>
    <ellipse cx="9.3266" cy="3.5935" rx="1.5459" ry="1.8121" fill="#ffe8af" opacity=".999" stroke-width=".25148"/>
   </g>
   <g transform="matrix(1 0 0 .68508 2.1704 1.2162)">
    <circle cx="9.0707" cy="3.7266" r="1.7609" fill="#ffd369" opacity=".999" stroke-width=".26458"/>
    <ellipse cx="9.3266" cy="3.5935" rx="1.5459" ry="1.8121" fill="#ffe8af" opacity=".999" stroke-width=".25148"/>
   </g>
   <g transform="matrix(1 0 0 .70718 .9214 -.50216)">
    <circle cx="9.0707" cy="3.7266" r="1.7609" fill="#ffd369" opacity=".999" stroke-width=".26458"/>
    <ellipse cx="9.3266" cy="3.5935" rx="1.5459" ry="1.8121" fill="#ffe8af" opacity=".999" stroke-width=".25148"/>
   </g>
  </g>
 </g>
</svg>
